<?xml version="1.0" encoding="utf-8"?>
<!-- Generator: Adobe Illustrator 25.2.1, SVG Export Plug-In . SVG Version: 6.00 Build 0)  -->
<svg version="1.1" id="レイヤー_1" xmlns="http://www.w3.org/2000/svg" xmlns:xlink="http://www.w3.org/1999/xlink" x="0px"
	 y="0px" viewBox="0 0 249.84 53.21" style="enable-background:new 0 0 249.84 53.21;" xml:space="preserve">
<style type="text/css">
	.st0{fill:#00A0E9;}
</style>
<g>
	<path class="st0" d="M31.11,52.27L13.54,28.73l-5.18,5.26v18.29H0V0h8.35v20.52c0,0.86,0,2.38-0.07,3.74h0.14
		c3.17-4.25,5.62-7.34,9.58-11.74L29.24,0h10.44L19.01,22.39l22.61,29.88H31.11z"/>
	<path class="st0" d="M61.13,53.21c-12.17,0-18.36-8.86-18.36-18.94c0-9.86,6.19-18.94,18.36-18.94c11.95,0,18.22,9.07,18.22,18.94
		C79.35,44.35,73.16,53.21,61.13,53.21z M61.13,22.61c-5.83,0-9.79,4.97-9.79,11.67c0,6.77,3.96,11.59,9.79,11.59
		c5.9,0,9.58-4.82,9.58-11.59C70.71,27.57,67.03,22.61,61.13,22.61z"/>
	<path class="st0" d="M109.8,52.27V29.01c0-4.03-2.3-5.83-6.7-5.83c-3.53,0-6.91,1.73-8.21,5.83v23.26h-8.35V16.2h7.63v3.96
		c2.52-3.46,6.98-4.82,11.09-4.82c8.06,0,12.89,3.82,12.89,11.67v25.27H109.8z"/>
	<path class="st0" d="M143.78,53.21c-12.17,0-18.36-8.86-18.36-18.94c0-9.86,6.19-18.94,18.36-18.94c11.95,0,18.22,9.07,18.22,18.94
		C162,44.35,155.81,53.21,143.78,53.21z M143.78,22.61c-5.83,0-9.79,4.97-9.79,11.67c0,6.77,3.96,11.59,9.79,11.59
		c5.9,0,9.58-4.82,9.58-11.59C153.36,27.57,149.69,22.61,143.78,22.61z"/>
	<path class="st0" d="M200.88,52.27l-13.03-19.8l-13.03,19.8h-10.37l18.43-27.07L166.1,0h10.08l11.81,17.86L199.8,0h9.86
		l-16.63,24.99l18.43,27.29H200.88z"/>
	<path class="st0" d="M241.27,52.27c-0.94-1.08-1.8-2.52-2.02-4.03c-2.74,3.38-7.42,4.97-12.24,4.97c-8.71,0-13.03-3.74-13.03-10.58
		c0-6.55,3.31-10.37,11.81-11.59c1.73-0.29,4.83-0.72,6.05-1.01c3.82-0.86,5.18-2.45,5.18-4.18c0-2.3-2.23-3.82-6.7-3.82
		c-4.82,0-6.91,1.73-7.49,5.26h-7.78c1.01-8.5,7.2-11.95,15.55-11.95c9.14,0,14.98,3.74,14.98,11.52v15.26
		c0,3.46,1.08,6.84,4.25,10.15H241.27z M237.38,33.62c-1.66,1.51-3.31,2.09-8.5,2.95c-3.6,0.72-6.26,1.8-6.26,5.69
		c0,2.52,2.09,4.25,5.76,4.25c3.31,0,8.14-2.09,9-5.54V33.62z"/>
</g>
<g>
</g>
<g>
</g>
<g>
</g>
<g>
</g>
<g>
</g>
<g>
</g>
</svg>
