<?xml version="1.0" encoding="utf-8"?>
<!-- Generator: Adobe Illustrator 25.0.0, SVG Export Plug-In . SVG Version: 6.00 Build 0)  -->
<svg version="1.1" id="レイヤー_1" xmlns="http://www.w3.org/2000/svg" xmlns:xlink="http://www.w3.org/1999/xlink" x="0px"
	 y="0px" viewBox="0 0 119.4 13.1" style="enable-background:new 0 0 119.4 13.1;" xml:space="preserve">
<style type="text/css">
	.st0{fill:url(#SVGID_1_);}
	.st1{fill:#F9F9F9;}
	.st2{fill:url(#SVGID_2_);}
	.st3{fill:url(#SVGID_3_);}
</style>
<linearGradient id="SVGID_1_" gradientUnits="userSpaceOnUse" x1="-2371.6682" y1="376.4352" x2="-2370.6682" y2="376.4352" gradientTransform="matrix(8.29 0 0 -9.33 19661.1309 3517.6904)">
	<stop  offset="0" style="stop-color:#FFA500"/>
	<stop  offset="1" style="stop-color:#FF0000"/>
</linearGradient>
<path class="st0" d="M0,10.2l1.2-9.3h6.5L7,5.1h1.3l-0.7,5.1H0z M6.4,5.7H2.8L3,5.1h2.1l0.6-3.6H2.9l-1,8.1h3.9L6.4,5.7z"/>
<path class="st1" d="M9.5,10.2l0.8-6.4H12l-0.8,6.4H9.5z M10.4,2.7l0.2-1.8h1.8l-0.3,1.8H10.4z"/>
<path class="st1" d="M12.9,13.1l0.3-2.5h1.7l-0.2,1.9h1.9l0.3-2.9h-3.7L14,3.8h5.3l-1,9.3H12.9z M17.5,4.4h-1.9L15,9h2L17.5,4.4z"/>
<path class="st1" d="M20.1,13.1l0.3-2.5h1.7l-0.2,1.9h1.9l0.3-2.9h-3.7l0.7-5.8h5.3l-1,9.3H20.1z M24.7,4.4h-1.9L22.2,9h2L24.7,4.4z
	"/>
<path class="st1" d="M27.5,10.2l0.8-6.4h5.4L33.4,7h-3.3l0.1-0.6h1.5l0.3-2h-2l-0.7,5.2h2.1L31.6,8h1.7L33,10.2H27.5z"/>
<path class="st1" d="M34.7,10.2l0.8-6.4h4l-0.2,0.6h-2.2l-0.8,5.8H34.7z"/>
<linearGradient id="SVGID_2_" gradientUnits="userSpaceOnUse" x1="-2349.4871" y1="376.2521" x2="-2348.4871" y2="376.2521" gradientTransform="matrix(7.76 0 0 -9.32 18275.3379 3512.2197)">
	<stop  offset="0" style="stop-color:#FFA500"/>
	<stop  offset="1" style="stop-color:#FF0000"/>
</linearGradient>
<path class="st2" d="M45.2,10.2l1.1-8.7h-3l0.2-0.6H51l-0.2,0.6H48l-1,8.7H45.2z"/>
<path class="st1" d="M54.8,10.2l0.7-5.8h-2l-0.8,5.8H51L52.3,0H54l-0.5,3.8h3.7l-0.7,6.4H54.8z"/>
<path class="st1" d="M62,10.2l0.4-3.7h-2L60,9.6h1.7l-0.2,0.6h-3.2l0.6-4.3h3.7l0.1-1.4h-3.8l0.2-0.6h5.5l-0.8,6.4L62,10.2z"/>
<path class="st1" d="M69.3,10.2L70,4.4h-2l-0.8,5.8h-1.7l0.8-6.4h5.4l-0.8,6.4H69.3z"/>
<linearGradient id="SVGID_3_" gradientUnits="userSpaceOnUse" x1="-2414.3113" y1="376.4352" x2="-2413.3113" y2="376.4352" gradientTransform="matrix(9.54 0 0 -9.33 23108.2422 3517.6899)">
	<stop  offset="0" style="stop-color:#FFA500"/>
	<stop  offset="1" style="stop-color:#FF0000"/>
</linearGradient>
<path class="st3" d="M83.3,10.2l-0.9-3.7h-3.3l-1.4,3.7h-1.9l3.7-9.3h3.4l2.4,9.3H83.3z M81.3,1.5h-0.4l-1.6,4.4h3L81.3,1.5z"/>
<path class="st1" d="M86.7,10.2l0.8-5.8h-1.3l0.2-0.6h1.2l0.3-2.4h1.7l-0.3,2.4h1.6l-0.2,0.6h-1.5l-0.7,5.2h1.8l-0.2,0.6L86.7,10.2z
	"/>
<path class="st1" d="M91.2,10.2L92,3.8h5.4l-0.8,6.4H91.2z M95.6,4.4h-2l-0.7,5.2H95L95.6,4.4z"/>
<path class="st1" d="M105.6,10.2l0.7-5.8h-1.9l-0.7,5.8H102l0.7-5.8h-1.9l-0.8,5.8h-1.7l0.8-6.4h8.9l-0.8,6.4H105.6z"/>
<path class="st1" d="M109.1,10.2l0.2-1.9h1.7l-0.1,1.3h1.7l0.3-2.5h-3.4l0.4-3.3h5l-0.2,1.6H113l0.1-1h-1.6l-0.3,2.1h3.4l-0.5,3.7
	L109.1,10.2z"/>
<path class="st1" d="M116.1,10.2l0.2-2h2l-0.2,2H116.1z M116.7,7.3l0.5-6.4h2.1l-1.2,6.4H116.7z"/>
</svg>
