<?xml version="1.0" encoding="utf-8"?>
<!-- Generator: Adobe Illustrator 25.0.0, SVG Export Plug-In . SVG Version: 6.00 Build 0)  -->
<svg version="1.1" id="レイヤー_1" xmlns="http://www.w3.org/2000/svg" xmlns:xlink="http://www.w3.org/1999/xlink" x="0px"
	 y="0px" viewBox="0 0 71.2 24.9" style="enable-background:new 0 0 71.2 24.9;" xml:space="preserve">
<style type="text/css">
	.st0{fill:url(#SVGID_1_);}
	.st1{fill:#F9F9F9;}
	.st2{fill:url(#SVGID_2_);}
	.st3{fill:url(#SVGID_3_);}
</style>
<linearGradient id="SVGID_1_" gradientUnits="userSpaceOnUse" x1="-2413.8782" y1="376.5177" x2="-2412.8782" y2="376.5177" gradientTransform="matrix(8.29 0 0 -9.33 20011.0508 3518.9102)">
	<stop  offset="0" style="stop-color:#FFA500"/>
	<stop  offset="1" style="stop-color:#FF0000"/>
</linearGradient>
<path class="st0" d="M0,10.6l1.2-9.3h6.5L7,5.5h1.3l-0.7,5.1H0z M6.4,6.2H2.8L3,5.6h2.1L5.7,2H2.9l-1,8h3.9L6.4,6.2z"/>
<path class="st1" d="M9.5,10.6l0.8-6.4H12l-0.8,6.4H9.5z M10.4,3.1l0.2-1.8h1.8l-0.3,1.8H10.4z"/>
<path class="st1" d="M12.9,13.5l0.3-2.5h1.7l-0.2,1.9h1.9l0.3-2.9h-3.7L14,4.2h5.3l-1,9.3C18.3,13.5,12.9,13.5,12.9,13.5z M17.5,4.8
	h-1.9L15,9.4h2L17.5,4.8z"/>
<path class="st1" d="M20.1,13.5l0.3-2.5h1.7l-0.2,1.9h1.9l0.3-2.9h-3.7l0.7-5.8h5.3l-1,9.3C25.4,13.5,20.1,13.5,20.1,13.5z
	 M24.7,4.8h-1.9l-0.6,4.6h2L24.7,4.8z"/>
<path class="st1" d="M27.5,10.6l0.8-6.4h5.4l-0.4,3.2H30l0.1-0.6h1.5l0.3-2h-2L29.2,10h2.1l0.2-1.6h1.7L33,10.6H27.5z"/>
<path class="st1" d="M34.7,10.6l0.8-6.4h4l-0.2,0.6h-2.2l-0.8,5.8H34.7z"/>
<linearGradient id="SVGID_2_" gradientUnits="userSpaceOnUse" x1="-2391.3701" y1="376.3356" x2="-2390.3701" y2="376.3356" gradientTransform="matrix(7.76 0 0 -9.32 18599.8184 3513.4478)">
	<stop  offset="0" style="stop-color:#FFA500"/>
	<stop  offset="1" style="stop-color:#FF0000"/>
</linearGradient>
<path class="st2" d="M44.7,10.6l1.1-8.7h-3L43,1.3h7.5l-0.2,0.6h-2.8l-1,8.7H44.7z"/>
<path class="st1" d="M54.3,10.6L55,4.8h-2l-0.8,5.8h-1.7l1.3-10.2h1.7L53,4.2h3.7L56,10.6H54.3z"/>
<path class="st1" d="M61.5,10.6l0.4-3.7h-2l-0.4,3.1h1.6L61,10.6h-3.2l0.6-4.3H62l0.1-1.5h-3.8l0.2-0.6H64l-0.8,6.4H61.5z"/>
<path class="st1" d="M68.7,10.6l0.7-5.8h-2l-0.8,5.8h-1.7l0.8-6.4h5.4l-0.8,6.4H68.7z"/>
<linearGradient id="SVGID_3_" gradientUnits="userSpaceOnUse" x1="-2463.7559" y1="374.9903" x2="-2462.7559" y2="374.9903" gradientTransform="matrix(9.54 0 0 -9.33 23518.1621 3518.9097)">
	<stop  offset="0" style="stop-color:#FFA500"/>
	<stop  offset="1" style="stop-color:#FF0000"/>
</linearGradient>
<path class="st3" d="M21.5,24.9l-0.9-3.7h-3.3l-1.4,3.7H14l3.7-9.3h3.5l2.4,9.3H21.5z M19.5,16.2h-0.4l-1.6,4.4h3L19.5,16.2z"/>
<path class="st1" d="M24.9,24.9l0.8-5.8h-1.3l0.2-0.6h1.2l0.3-2.4h1.7l-0.3,2.4h1.6l-0.2,0.6h-1.5l-0.7,5.2h1.8l-0.2,0.6H24.9z"/>
<path class="st1" d="M29.3,24.9l0.8-6.4h5.4l-0.8,6.4H29.3z M33.8,19.1h-2l-0.7,5.2h2.1L33.8,19.1z"/>
<path class="st1" d="M43.8,24.9l0.7-5.8h-1.9l-0.7,5.8h-1.7l0.7-5.8H39l-0.8,5.8h-1.7l0.8-6.4h8.9l-0.8,6.4
	C45.4,24.9,43.8,24.9,43.8,24.9z"/>
<path class="st1" d="M47.2,24.9l0.2-1.9h1.7L49,24.2h1.7l0.3-2.5h-3.4l0.4-3.3h5L52.8,20h-1.7l0.1-1h-1.6l-0.3,2.1h3.4l-0.5,3.7
	L47.2,24.9z"/>
<path class="st1" d="M54.3,24.9l0.2-2h2l-0.2,2H54.3z M54.9,22l0.5-6.4h2.1L56.2,22H54.9z"/>
</svg>
