<svg id="レイヤー_1" data-name="レイヤー 1" xmlns="http://www.w3.org/2000/svg" viewBox="0 0 119.39 13.09"><path d="M0,10.19,1.2.86H7.66L7,5.11H8.29l-.67,5.08ZM6.43,5.73H2.85l.21-.62H5.14l.64-3.63H2.88L1.94,9.56H5.88Z" transform="translate(0 -0.01)"/><path d="M9.47,10.19l.84-6.39H12l-.84,6.39Zm.92-7.52.25-1.8h1.83l-.26,1.8Z" transform="translate(0 -0.01)"/><path d="M12.85,13.09l.31-2.51h1.72l-.24,1.91h1.93l.31-2.9H13.16l.75-5.79h5.31l-1,9.29Zm4.6-8.69h-1.9L15,9h2Z" transform="translate(0 -0.01)"/><path d="M20.08,13.09l.31-2.51H22.1l-.24,1.91h1.93l.32-2.9H20.39l.74-5.79h5.31l-1,9.29ZM24.67,4.4h-1.9L22.17,9h2Z" transform="translate(0 -0.01)"/><path d="M27.5,10.19l.84-6.39h5.42L33.37,7H30.06l.15-.6h1.51l.26-2H30l-.68,5.19h2.07L31.57,8h1.71L33,10.19Z" transform="translate(0 -0.01)"/><path d="M34.71,10.19l.84-6.39h4l-.2.6H37.19l-.76,5.79Z" transform="translate(0 -0.01)"/><path d="M45.5,10.19l1.12-8.71h-3l.21-.61h7.55l-.19.61H48.38l-1,8.71Z" transform="translate(0 -0.01)"/><path d="M55.1,10.19l.71-5.79h-2L53,10.19H51.32L52.64,0h1.72l-.5,3.79h3.73l-.77,6.39Z" transform="translate(0 -0.01)"/><path d="M62.34,10.19l.44-3.7h-2l-.41,3.1H62l-.19.6H58.56l.56-4.3h3.73L63,4.4H59.19l.18-.6h5.45l-.77,6.39Z" transform="translate(0 -0.01)"/><path d="M69.55,10.19l.7-5.79h-2l-.76,5.79H65.77l.84-6.39H72l-.78,6.39Z" transform="translate(0 -0.01)"/><path d="M83.39,10.19l-.87-3.73H79.17l-1.39,3.73H75.86L79.51.86H83l2.4,9.33Zm-2-8.72H81L79.4,5.83h3Z" transform="translate(0 -0.01)"/><path d="M86.83,10.19l.75-5.79h-1.3l.15-.6h1.23L88,1.44h1.71L89.37,3.8H91l-.21.6H89.3l-.69,5.19h1.76l-.21.6Z" transform="translate(0 -0.01)"/><path d="M91.26,10.19l.82-6.39h5.44l-.77,6.39ZM95.73,4.4h-2L93,9.59h2.07Z" transform="translate(0 -0.01)"/><path d="M105.74,10.19l.7-5.79h-1.9l-.72,5.79h-1.71l.72-5.79h-1.89l-.76,5.79H98.47l.84-6.39h8.92l-.78,6.39Z" transform="translate(0 -0.01)"/><path d="M109.18,10.19l.22-1.86h1.71L111,9.58h1.7L113,7.07h-3.4L110,3.8h5l-.2,1.6h-1.72l.13-1h-1.62l-.26,2.07h3.39l-.46,3.72Z" transform="translate(0 -0.01)"/><path d="M116.22,10.18l.24-2h2l-.23,2Zm.6-2.87.46-6.45h2.11l-1.21,6.45Z" transform="translate(0 -0.01)"/></svg>