<svg id="レイヤー_1" data-name="レイヤー 1" xmlns="http://www.w3.org/2000/svg" viewBox="0 0 93.46 8.94"><path d="M7.67,8.87c-.4,0-.79-.31-1-1C6.4,6.56,5.55,2.22,5.41,1.19c0-.2-.12-.3-.21-.3S5,1,5,1.22c-.16,1.11-1,5.13-1.4,6.64-.17.68-.59,1-1,1a1.09,1.09,0,0,1-1-1C1.23,6.13.34,2.22.06.52c0,0,0-.05,0-.07A.37.37,0,0,1,.46.1a.39.39,0,0,1,.4.29c.3,1.76,1.19,6,1.45,7.27,0,.27.16.4.28.4s.27-.15.33-.42C3.15,6.61,4,2.5,4.33.84A.86.86,0,0,1,5.17.08a.91.91,0,0,1,.88.75c.27,1.41,1.07,5.37,1.32,6.8,0,.29.17.42.27.42s.26-.14.33-.41C8.27,6.49,9.29,2.08,9.61.39a.4.4,0,0,1,.78,0c0,.14-.07.66-1.73,7.5A1.1,1.1,0,0,1,7.67,8.87Z" transform="translate(-0.05 0)"/><path d="M18,8.84a.38.38,0,0,1-.37-.27c-.15-.35-.6-1.59-1-2.69a.19.19,0,0,0-.2-.14H13a.19.19,0,0,0-.18.14c-.31,1-.68,2.09-.86,2.68a.39.39,0,0,1-.38.28.36.36,0,0,1-.38-.32.53.53,0,0,1,0-.12c.67-2.17,2.07-6,2.65-7.68a.87.87,0,0,1,.81-.63.92.92,0,0,1,.86.65c.79,2.2,2.37,6.58,2.78,7.54a.57.57,0,0,1,0,.18A.38.38,0,0,1,18,8.84ZM16.31,4.9C15.94,3.77,15.17,1.71,15,1.11c-.06-.18-.15-.27-.24-.27s-.19.1-.27.29c-.25.69-1.32,3.77-1.32,3.86s0,.08.14.08h2.94c.08,0,.1,0,.1-.06A.36.36,0,0,0,16.31,4.9Z" transform="translate(-0.05 0)"/><path d="M23.27,4.5s.05.11.13.18A11.45,11.45,0,0,1,25,7.1a1.71,1.71,0,0,0,1.23,1,.41.41,0,0,1,.37.41c0,.21-.16.4-.49.4A2.24,2.24,0,0,1,24.41,7.5c-.49-.87-1.5-2.88-2.34-2.9l-1,0c-.33,0-.38.08-.38.23,0,.93,0,3.23,0,3.67a.37.37,0,0,1-.4.36A.34.34,0,0,1,20,8.48c0-2.29,0-5.82.05-7.12S21.24.05,22.17.05a7,7,0,0,1,.7,0c1.75.12,2.51,1.14,2.51,2.16a2.23,2.23,0,0,1-2,2.2C23.31,4.44,23.27,4.47,23.27,4.5ZM22.79.69c-.17,0-.43,0-.71,0-.89,0-1.3.17-1.35.86,0,.3,0,1.52,0,2.24,0,.18.18.2,1.17.2l1,0a1.77,1.77,0,0,0,1.75-1.69C24.62,1.49,24.06.76,22.79.69Z" transform="translate(-0.05 0)"/><path d="M30,8.94c-1.94,0-2.77-1.24-2.77-1.57a.39.39,0,0,1,.72-.18,2.25,2.25,0,0,0,2.06,1A1.79,1.79,0,0,0,32,6.6,2,2,0,0,0,30.83,5c-.61-.35-1.27-.67-1.92-1A2.2,2.2,0,0,1,27.59,2a2.1,2.1,0,0,1,2.32-2c1.5,0,2.38.86,2.38,1.24a.38.38,0,0,1-.36.38.39.39,0,0,1-.33-.2A2,2,0,0,0,29.89.64,1.42,1.42,0,0,0,28.32,2a1.61,1.61,0,0,0,.95,1.37c.54.29,1.39.67,1.91,1a2.65,2.65,0,0,1,1.56,2.28A2.5,2.5,0,0,1,30,8.94Z" transform="translate(-0.05 0)"/><path d="M34.42,8.47c0-1,0-2.13,0-3.2s0-2.1,0-2.89c0-.4,0-.73,0-1C34.5.06,35.73.05,36.58.05a5.72,5.72,0,0,1,.62,0,2.51,2.51,0,0,1,2.52,2.51,2.53,2.53,0,0,1-2.35,2.56,5.73,5.73,0,0,1-.82,0,5.35,5.35,0,0,1-1.18-.12s-.07,0-.11,0-.07,0-.07.18c0,.82,0,2,0,2.89v.33a.37.37,0,0,1-.39.39.38.38,0,0,1-.41-.36ZM39,2.57A1.81,1.81,0,0,0,37.12.75h-.65c-.68,0-1.21,0-1.27.78,0,.06,0,.14,0,2.23v.38c0,.23.18.38,1.3.38.26,0,.52,0,.75,0A1.88,1.88,0,0,0,39,2.57Z" transform="translate(-0.05 0)"/><path d="M42.41,8.46a.37.37,0,0,1-.41.37.37.37,0,0,1-.39-.37h0c0-1.35,0-2.83,0-4.28,0-1.3,0-2.57,0-3.69h0A.38.38,0,0,1,42,.08a.38.38,0,0,1,.4.37h0c0,1.16,0,2.48,0,3.85s0,2.78,0,4.14Z" transform="translate(-0.05 0)"/><path d="M47.87,8.48a.42.42,0,0,1-.84,0h0c0-1.05,0-3.21,0-5.05,0-1,0-1.83,0-2.4,0-.16,0-.2-.82-.2l-1.77,0A.36.36,0,0,1,44.07.5a.35.35,0,0,1,.38-.35h0l3.27,0,2.74,0h0a.34.34,0,0,1,.36.35.33.33,0,0,1-.34.34h0l-1.24,0L48,.84c-.11,0-.19,0-.19.18,0,.58,0,1.36,0,2.21,0,1.87,0,4.09,0,5.24Z" transform="translate(-0.05 0)"/><path d="M57.22,8.83H54.09c-1.06-.08-1.58-.56-1.61-1.34,0-.51,0-1.37,0-2.32,0-1.42,0-3,0-3.76A1.28,1.28,0,0,1,53.88.11l1.56,0,1.5,0a.36.36,0,0,1,.38.35.36.36,0,0,1-.4.34l-2.06,0c-1.21,0-1.59,0-1.65.74,0,.28,0,1.29,0,2,0,.23.12.23.24.23h2.93c.38,0,.41.26.41.34a.39.39,0,0,1-.41.38h0c-.37,0-1,0-1.67,0-1.48,0-1.5,0-1.5.24,0,1.85,0,2.41,0,2.7,0,.46.3.72.94.77h3.11a.34.34,0,0,1,.38.32A.39.39,0,0,1,57.22,8.83Z" transform="translate(-0.05 0)"/><path d="M59.58,8.89A.53.53,0,0,1,59,8.3a.57.57,0,0,1,.58-.57.58.58,0,0,1,.6.56A.6.6,0,0,1,59.58,8.89Z" transform="translate(-0.05 0)"/><path d="M69.3,8a.84.84,0,0,1-.86.86,1,1,0,0,1-.81-.47c-.85-1.36-3.44-6.09-4.09-7.2-.08-.15-.19-.24-.27-.24s-.17.16-.17,1c0,1.54,0,5.27.06,6.52h0a.41.41,0,0,1-.82,0h0c0-1.11,0-2.37,0-3.59,0-1.42,0-2.78,0-3.85V1c0-.64.37-.94.78-.94A1.07,1.07,0,0,1,64,.64c.75,1.25,3.22,5.72,4.11,7.11a.32.32,0,0,0,.24.19c.15,0,.15-.22.15-.58,0-1.29,0-5.74-.07-6.88h0a.39.39,0,0,1,.4-.41.41.41,0,0,1,.42.41h0c0,.69,0,1.56,0,2.5,0,1.79,0,3.79,0,5Z" transform="translate(-0.05 0)"/><path d="M77.54,8.84a.39.39,0,0,1-.37-.27c-.14-.35-.6-1.59-1-2.69,0-.09-.07-.14-.19-.14H72.58a.18.18,0,0,0-.18.14c-.31,1-.69,2.09-.87,2.68a.38.38,0,0,1-.38.28.35.35,0,0,1-.37-.32.5.5,0,0,1,0-.12c.67-2.17,2.08-6,2.65-7.68a.88.88,0,0,1,.82-.63.9.9,0,0,1,.85.65c.79,2.2,2.37,6.58,2.78,7.54a.39.39,0,0,1,0,.18A.38.38,0,0,1,77.54,8.84ZM75.86,4.9c-.37-1.13-1.14-3.19-1.33-3.79q-.09-.27-.24-.27c-.09,0-.19.1-.26.29-.25.69-1.32,3.77-1.32,3.86s0,.08.13.08h2.94c.08,0,.11,0,.11-.06A.2.2,0,0,0,75.86,4.9Z" transform="translate(-0.05 0)"/><path d="M82.13,8.88a1,1,0,0,1-.88-.68C80.51,6.09,78.79.62,78.79.45a.37.37,0,0,1,.39-.36.39.39,0,0,1,.39.3c.39,1.38,1.79,5.84,2.27,7.33.06.18.17.28.28.28s.21-.1.28-.31C82.85,6.43,84.19,2,84.72.35a.38.38,0,0,1,.37-.29.41.41,0,0,1,.42.39c0,.13-1.94,6.09-2.54,7.79A.91.91,0,0,1,82.13,8.88Z" transform="translate(-0.05 0)"/><path d="M89.7,5.4c0-.24,0-.26-.17-.45L86.75.72a.46.46,0,0,1-.08-.26.38.38,0,0,1,.39-.37.39.39,0,0,1,.37.23c.52.91,1.65,2.61,2.51,3.91.06.08.11.13.17.13.26,0,2.49-3.78,2.64-4a.35.35,0,0,1,.32-.21.45.45,0,0,1,.45.42.4.4,0,0,1-.08.22c-.55.89-2,3.06-2.77,4.18a.58.58,0,0,0-.15.48c0,.75,0,2,0,3a.42.42,0,1,1-.83,0Z" transform="translate(-0.05 0)"/></svg>