<svg xmlns="http://www.w3.org/2000/svg" viewBox="0 0 86.34 24.75">
    <defs>
        <style>.a{fill:#fff;}</style>
    </defs>
    <path class="a" d="M5.62,8H4.75l.49-4H1.37L.88,8H0L1,0h.88L1.47,3.21H5.34L5.73,0h.89Z" transform="translate(0.06 0)"/>
    <path class="a" d="M8.35,5.79a1.71,1.71,0,0,0,.26,1,1.6,1.6,0,0,0,1.31.62,1.59,1.59,0,0,0,1.35-.65l.64.39a2.24,2.24,0,0,1-2,1A2.26,2.26,0,0,1,7.49,5.79,2.6,2.6,0,0,1,10,3a2.15,2.15,0,0,1,2.16,1.75,4.64,4.64,0,0,1,.09,1Zm3-.7A1.32,1.32,0,0,0,10,3.77a1.51,1.51,0,0,0-1.19.54,1.67,1.67,0,0,0-.35.78Z" transform="translate(0.06 0)"/>
    <path class="a" d="M13.65,10.75h-1l1.84-3.2L13,3.16h.9L15,6.62l2-3.46h1Z" transform="translate(0.06 0)"/>
    <path class="a" d="M21.73,10.75h-1l1.84-3.2L21,3.16h.9l1.19,3.46,2-3.46H26Z" transform="translate(0.06 0)"/>
    <path class="a" d="M31.48,5.55a2.58,2.58,0,0,1-2.62,2.61,2.48,2.48,0,0,1-2.58-2.51A2.65,2.65,0,0,1,29,3,2.43,2.43,0,0,1,31.48,5.55Zm-4.34.08a1.69,1.69,0,0,0,1.73,1.76,1.76,1.76,0,0,0,1.75-1.87,1.64,1.64,0,0,0-1.68-1.75A1.79,1.79,0,0,0,27.14,5.63Z" transform="translate(0.06 0)"/>
    <path class="a" d="M36.65,6a2.33,2.33,0,0,1-.54,1.51,2.19,2.19,0,0,1-1.59.6,1.61,1.61,0,0,1-1.83-1.64,3.52,3.52,0,0,1,.05-.62l.32-2.7h.84l-.34,2.78a4.84,4.84,0,0,0,0,.53c0,.54.39.89,1,.89a1.18,1.18,0,0,0,1-.44,1.55,1.55,0,0,0,.25-.85l.36-2.91H37Z" transform="translate(0.06 0)"/>
    <path class="a" d="M42.29,7.54a.58.58,0,0,1-.58.56.56.56,0,0,1-.55-.58A.55.55,0,0,1,41.71,7,.57.57,0,0,1,42.29,7.54Z" transform="translate(0.06 0)"/>
    <path class="a" d="M45.17,7.54a.58.58,0,0,1-.58.56A.56.56,0,0,1,44,7.52.55.55,0,0,1,44.59,7,.57.57,0,0,1,45.17,7.54Z" transform="translate(0.06 0)"/>
    <path class="a" d="M48.05,7.54a.58.58,0,0,1-.58.56.56.56,0,0,1-.55-.58A.55.55,0,0,1,47.47,7,.57.57,0,0,1,48.05,7.54Z" transform="translate(0.06 0)"/>
    <path class="a" d="M2.45,22H1.56L2,18.36-.06,14h1l1.65,3.52L5,14H6L2.88,18.45Z" transform="translate(0.06 0)"/>
    <path class="a" d="M6.79,19.79a1.71,1.71,0,0,0,.26,1,1.6,1.6,0,0,0,1.31.62,1.59,1.59,0,0,0,1.35-.65l.64.39a2.24,2.24,0,0,1-2,1,2.26,2.26,0,0,1-2.42-2.37A2.6,2.6,0,0,1,8.43,17a2.16,2.16,0,0,1,2.16,1.75,4.64,4.64,0,0,1,.09,1Zm3-.7A1.32,1.32,0,0,0,8.4,17.77a1.51,1.51,0,0,0-1.19.54,1.67,1.67,0,0,0-.35.78Z" transform="translate(0.06 0)"/>
    <path class="a" d="M16.24,22H15.4l.09-.68a2.13,2.13,0,0,1-1.68.8,2.2,2.2,0,0,1-2.25-2.35A2.55,2.55,0,0,1,14.11,17a2.05,2.05,0,0,1,1.8.91l.09-.79h.84Zm-3.82-2.27A1.55,1.55,0,0,0,14,21.36a1.92,1.92,0,0,0,1.8-2,1.53,1.53,0,0,0-1.59-1.58A1.82,1.82,0,0,0,12.42,19.73Z" transform="translate(0.06 0)"/>
    <path class="a" d="M19.25,17.7A1.84,1.84,0,0,1,20.7,17a1.36,1.36,0,0,1,1.51,1.33,5.74,5.74,0,0,1-.06.71L21.79,22H21l.36-2.93c0-.2.05-.41.05-.48,0-.5-.31-.78-.88-.78a1.45,1.45,0,0,0-1,.4A1.8,1.8,0,0,0,19,19.37L18.72,22h-.84L19,13.26h.84Z" transform="translate(0.06 0)"/>
    <path class="a" d="M26.92,24.75H26l1.83-3.2-1.58-4.39h.9l1.18,3.46,2-3.46h.95Z" transform="translate(0.06 0)"/>
    <path class="a" d="M36.67,19.55A2.59,2.59,0,0,1,34,22.16a2.48,2.48,0,0,1-2.58-2.51A2.65,2.65,0,0,1,34.16,17,2.43,2.43,0,0,1,36.67,19.55Zm-4.34.08a1.69,1.69,0,0,0,1.72,1.76,1.77,1.77,0,0,0,1.76-1.87,1.64,1.64,0,0,0-1.68-1.75A1.79,1.79,0,0,0,32.33,19.63Z" transform="translate(0.06 0)"/>
    <path class="a" d="M41.83,20a2.33,2.33,0,0,1-.54,1.51,2.17,2.17,0,0,1-1.58.6,1.61,1.61,0,0,1-1.84-1.64,3.52,3.52,0,0,1,.05-.62l.32-2.7h.84l-.33,2.78a3.23,3.23,0,0,0,0,.53c0,.54.4.89,1,.89a1.22,1.22,0,0,0,1-.44,1.64,1.64,0,0,0,.25-.85l.36-2.91h.84Z" transform="translate(0.06 0)"/>
    <path class="a" d="M51.2,22h-1l-2.1-3.53h-.31L47.36,22h-.87l1-8h1.31a2.64,2.64,0,0,1,1.7.44,2.12,2.12,0,0,1,.75,1.66,2.23,2.23,0,0,1-1.16,2,2.5,2.5,0,0,1-1.06.31Zm-3.31-4.25h.5a1.94,1.94,0,0,0,1.44-.41,1.77,1.77,0,0,0,.49-1.22c0-.86-.53-1.3-1.55-1.3h-.52Z" transform="translate(0.06 0)"/>
    <path class="a" d="M57.55,19.55a2.59,2.59,0,0,1-2.63,2.61,2.48,2.48,0,0,1-2.58-2.51A2.65,2.65,0,0,1,55,17,2.43,2.43,0,0,1,57.55,19.55Zm-4.34.08a1.69,1.69,0,0,0,1.72,1.76,1.77,1.77,0,0,0,1.76-1.87A1.64,1.64,0,0,0,55,17.77,1.79,1.79,0,0,0,53.21,19.63Z" transform="translate(0.06 0)"/>
    <path class="a" d="M62.71,20a2.33,2.33,0,0,1-.54,1.51,2.17,2.17,0,0,1-1.58.6,1.61,1.61,0,0,1-1.84-1.64,3.52,3.52,0,0,1,0-.62l.32-2.7H60l-.33,2.78a3.23,3.23,0,0,0,0,.53c0,.54.4.89,1,.89a1.22,1.22,0,0,0,1-.44,1.64,1.64,0,0,0,.25-.85l.36-2.91h.84Z" transform="translate(0.06 0)"/>
    <path class="a" d="M65,22h-.84l.51-4.13h-.6l.09-.76h.6l.24-2h.84l-.24,2h1l-.09.76h-1Z" transform="translate(0.06 0)"/>
    <path class="a" d="M67.68,19.79a1.63,1.63,0,0,0,.26,1,1.6,1.6,0,0,0,1.31.62,1.57,1.57,0,0,0,1.34-.65l.65.39a2.43,2.43,0,0,1-4.42-1.34A2.6,2.6,0,0,1,69.32,17a2.16,2.16,0,0,1,2.16,1.75,4.64,4.64,0,0,1,.09,1Zm3-.7a1.32,1.32,0,0,0-1.41-1.32,1.51,1.51,0,0,0-1.19.54,1.67,1.67,0,0,0-.35.78Z" transform="translate(0.06 0)"/>
    <path class="a" d="M73.86,17.71A1.66,1.66,0,0,1,75.14,17a1.22,1.22,0,0,1,.79.27l-.51.7a1.18,1.18,0,0,0-.58-.17,1,1,0,0,0-.68.3,2.14,2.14,0,0,0-.52,1.37L73.33,22h-.84l.6-4.84h.84Z" transform="translate(0.06 0)"/>
    <path class="a" d="M80.52,21.54a.58.58,0,0,1-.58.56.56.56,0,0,1-.55-.58.55.55,0,0,1,.55-.56A.57.57,0,0,1,80.52,21.54Z" transform="translate(0.06 0)"/>
    <path class="a" d="M83.4,21.54a.58.58,0,0,1-.58.56.56.56,0,0,1-.55-.58.55.55,0,0,1,.55-.56A.57.57,0,0,1,83.4,21.54Z" transform="translate(0.06 0)"/>
    <path class="a" d="M86.28,21.54a.58.58,0,0,1-.58.56.56.56,0,0,1-.55-.58A.55.55,0,0,1,85.7,21,.57.57,0,0,1,86.28,21.54Z" transform="translate(0.06 0)"/>
</svg>