<svg xmlns="http://www.w3.org/2000/svg" viewBox="0 0 400.89 63.94"><defs><style>.a{fill:#fff;}</style></defs><path class="a" d="M15.77,34.41l8.57-20,8.64,20,7.85-17.28h7.78L32.76,49.75,24.34,30.17l-8.5,19.58L0,17.13H7.85Z" transform="translate(0 0)"/><path class="a" d="M82.59,17.13V47.45h-7V44.28c-3.24,3-5.61,4.1-9.29,4.1-8.35,0-14.47-6.84-14.47-16.13S58,16.34,66.1,16.34c3.89,0,6.48,1.15,9.5,4.32V17.13ZM59,32.25c0,5.77,3.45,9.87,8.35,9.87,5.19,0,8.71-4,8.71-9.72s-3.52-9.79-8.64-9.79C62.57,22.61,59,26.71,59,32.25Z" transform="translate(0 0)"/><path class="a" d="M98.42,17.13v2.74c2.6-2.74,4.25-3.6,7-3.6,2.16,0,3.46.43,5.83,1.87L108,24.55A5.82,5.82,0,0,0,104.11,23c-3.88,0-5.69,2.73-5.69,8.71v15.7h-7V17.13Z" transform="translate(0 0)"/><path class="a" d="M127.15,25.41c-1-1.94-2-2.8-3.45-2.8a2.2,2.2,0,0,0-2.31,2.16c0,1.29.79,1.94,4,3.45a39.93,39.93,0,0,1,5.77,3.1,7.86,7.86,0,0,1,3.67,6.84c0,5.76-4.75,10.22-10.8,10.22-5.12,0-8.72-2.52-10.8-7.48l6-2.74c1.66,3,2.81,4,4.9,4s3.6-1.3,3.6-3.24-.43-2.3-7-5.55c-4.46-2.16-5.9-4.1-5.9-7.84a9,9,0,0,1,9.43-9.15c4,0,6.63,1.87,8.64,6Z" transform="translate(0 0)"/><path class="a" d="M141.12,63.94V17.13h7v3.32c3-2.89,5.69-4.11,9.36-4.11,8.29,0,14.41,6.84,14.41,16.13,0,9.07-6.12,15.91-14.26,15.91-3.82,0-6.55-1.29-9.51-4.32V63.94Zm6.55-31.61c0,5.76,3.53,9.79,8.64,9.79,4.83,0,8.43-4.1,8.43-9.58,0-5.83-3.46-9.93-8.36-9.93C151.2,22.61,147.67,26.57,147.67,32.33Z" transform="translate(0 0)"/><path class="a" d="M187.42,4.53a4.58,4.58,0,1,1-9.15,0A4.61,4.61,0,0,1,182.81,0,4.53,4.53,0,0,1,187.42,4.53Zm-1.08,42.92h-7V17.13h7Z" transform="translate(0 0)"/><path class="a" d="M202.32,47.45h-7V23.69h-3V17.13h3V6h7V17.13h5.47v6.56h-5.47Z" transform="translate(0 0)"/><path class="a" d="M218.45,34c.36,5,3.38,8.14,7.84,8.14,3.53,0,5.4-1.37,8.21-5.91l5.91,3.32a17,17,0,0,1-4.11,5.18,15.44,15.44,0,0,1-10.22,3.67c-9,0-15-6.33-15-16s5.83-16.06,14.62-16.06c5,0,9.58,2.3,11.95,6a19,19,0,0,1,2.45,10V34Zm14.47-5.69c-.94-3.6-3.46-5.61-7.06-5.61a7.06,7.06,0,0,0-7,5.61Z" transform="translate(0 0)"/><path class="a" d="M256.82,44a4.32,4.32,0,1,1-4.32-4.32A4.34,4.34,0,0,1,256.82,44Z" transform="translate(0 0)"/><path class="a" d="M273,17.13v2.81c2.81-2.73,4.82-3.6,8.28-3.6,3.82,0,7.2,1.59,8.93,4.11,1.3,2,1.87,4.39,1.87,8.42V47.45h-7V30.53c0-3.17-.22-4.61-.94-5.76a5.25,5.25,0,0,0-4.68-2.16c-4.75,0-6.48,2.73-6.48,10.22V47.45h-7V17.13Z" transform="translate(0 0)"/><path class="a" d="M330.19,17.13V47.45h-7V44.28c-3.25,3-5.62,4.1-9.29,4.1-8.36,0-14.48-6.84-14.48-16.13s6.12-15.91,14.26-15.91c3.89,0,6.48,1.15,9.51,4.32V17.13ZM306.57,32.25c0,5.77,3.46,9.87,8.35,9.87,5.19,0,8.72-4,8.72-9.72s-3.53-9.79-8.64-9.79C310.17,22.61,306.57,26.71,306.57,32.25Z" transform="translate(0 0)"/><path class="a" d="M350.71,34.13l7.78-17h7.84L350.64,49.54,335,17.13h7.85Z" transform="translate(0 0)"/><path class="a" d="M367,17.13h8.14l9.21,17.43L393,17.13h7.92L376.77,63.94h-8l11.81-22.18Z" transform="translate(0 0)"/></svg>